
        <svg xmlns="http://www.w3.org/2000/svg" xmlns:xlink="http://www.w3.org/1999/xlink" version="1.1" width="3198.049183289036" height="899.3703182957489" viewBox="0 0 3198.049183289036 899.3703182957489">
			
			<g transform="scale(9.902459164451786) translate(10, 10)">
				<defs id="SvgjsDefs1320"/><g id="SvgjsG1321" featureKey="ewgXDI-0" transform="matrix(2.8467868264664276,0,0,2.8467868264664276,-2.903720472516996,13.317830174273428)" fill="#000"><path d="M6.86 9.42 c2.38 0 5.12 1.78 5.12 5.36 c0 3.72 -2.74 5.42 -5.12 5.42 c-1.6 0 -2.54 -0.88 -2.68 -1.24 l0 1.04 l-3.16 0 l0 -10.4 l0 -3.74 l3.16 0 l0 4.7 c0.14 -0.22 1.08 -1.14 2.68 -1.14 z M6.4 17.42 c1.36 0 2.52 -0.92 2.52 -2.64 c0 -1.66 -1.16 -2.58 -2.52 -2.58 c-1.3 0 -2.36 0.9 -2.36 2.58 c0 1.74 1.06 2.64 2.36 2.64 z M18.86 9.42 c2.36 0 5.48 1.78 5.48 5.42 c0 3.66 -3.12 5.36 -5.48 5.36 s-5.48 -1.7 -5.48 -5.36 c0 -3.64 3.12 -5.42 5.48 -5.42 z M18.86 12.2 c-1.2 0 -2.42 0.92 -2.42 2.64 c0 1.66 1.22 2.58 2.42 2.58 s2.44 -0.92 2.44 -2.58 c0 -1.72 -1.24 -2.64 -2.44 -2.64 z M31.22 9.42 c2.36 0 5.48 1.78 5.48 5.42 c0 3.66 -3.12 5.36 -5.48 5.36 s-5.48 -1.7 -5.48 -5.36 c0 -3.64 3.12 -5.42 5.48 -5.42 z M31.22 12.2 c-1.2 0 -2.42 0.92 -2.42 2.64 c0 1.66 1.22 2.58 2.42 2.58 s2.44 -0.92 2.44 -2.58 c0 -1.72 -1.24 -2.64 -2.44 -2.64 z M45.62 20 l-3.38 -4.04 l-0.66 0.7 l0 3.34 l-3.16 0 l0 -3.78 l0 -10.36 l3.16 0 l0 6.94 l2.94 -3.2 l3.78 0 l-4.12 4.34 l5.04 6.06 l-3.6 0 z M55.8 9.42 c2.36 0 5.66 1.78 5 6.48 l-7.26 0 c0.36 1.08 1.3 1.64 2.56 1.64 c1.28 0 1.68 -0.28 2.4 -0.58 l1.74 1.68 c-0.92 0.9 -2.16 1.56 -4.26 1.56 c-2.58 0 -5.66 -1.78 -5.66 -5.36 c0 -3.64 3.12 -5.42 5.48 -5.42 z M55.8 12.120000000000001 c-0.9 0 -1.82 0.52 -2.22 1.56 l4.42 0 c-0.32 -1.04 -1.3 -1.56 -2.2 -1.56 z M69.28 9.44 c0.28 0 0.56 0 0.82 0.06 l0 3.02 c-0.24 -0.06 -0.52 -0.06 -0.72 -0.06 c-1.92 0 -3.46 1.38 -3.62 3.3 l0 4.24 l-3.16 0 l0 -10.4 l3.16 0 l0 2.54 c0.48 -1.56 1.68 -2.7 3.52 -2.7 z M77.8 13.219999999999999 l0 2.64 l-6.2 0 l0 -2.64 l6.2 0 z M82.88 5.859999999999999 l0 2.66 l-3.16 0 l0 -2.66 l3.16 0 z M82.88 9.6 l0 10.4 l-3.16 0 l0 -10.4 l3.16 0 z M91.30000000000001 9.44 c1.94 0 3.92 1.3 3.92 4.6 l0 5.96 l-3.16 0 l0 -5.74 c0 -1.58 -0.54 -2.08 -1.54 -2.08 c-1.42 0 -2.24 1.38 -2.44 1.98 l0 5.84 l-3.16 0 l0 -10.4 l3.16 0 l0 1.8 c0.2 -0.5 1.26 -1.96 3.22 -1.96 z M103.52000000000001 9.44 c1.94 0 3.92 1.3 3.92 4.6 l0 5.96 l-3.16 0 l0 -5.74 c0 -1.58 -0.54 -2.08 -1.54 -2.08 c-1.42 0 -2.24 1.38 -2.44 1.98 l0 5.84 l-3.16 0 l0 -10.4 l3.16 0 l0 1.8 c0.2 -0.5 1.26 -1.96 3.22 -1.96 z"/></g>
			</g>
		</svg>
	